<svg width="25" height="25" viewBox="0 0 25 25" fill="none" xmlns="http://www.w3.org/2000/svg">
<path fill-rule="evenodd" clip-rule="evenodd" d="M23 15.6713C22.5943 15.17 22.083 14.7575 21.5 14.4678V12.5C21.5 7.39137 17.6086 3.53027 12.5 3.53027C7.39137 3.53027 3.5 7.39137 3.5 12.5V14.4678C2.91698 14.7575 2.40572 15.17 2 15.6713V12.5C2 6.56294 6.56294 2.03027 12.5 2.03027C18.4371 2.03027 23 6.56294 23 12.5V15.6713ZM5.04422 15.0294C5.01519 15.1818 5 15.3391 5 15.5V21.5C5 21.6609 5.01519 21.8182 5.04422 21.9706C3.32657 21.7472 2 20.2785 2 18.5C2 16.7215 3.32657 15.2528 5.04422 15.0294ZM20 21.5C20 21.6609 19.9848 21.8182 19.9558 21.9706C21.6734 21.7472 23 20.2785 23 18.5C23 16.7215 21.6734 15.2528 19.9558 15.0294C19.9848 15.1818 20 15.3391 20 15.5V21.5ZM7.5 14H8.5C9.32843 14 10 14.6716 10 15.5V21.5C10 22.3284 9.32843 23 8.5 23H7.5C6.67157 23 6 22.3284 6 21.5V15.5C6 14.6716 6.67157 14 7.5 14ZM17.5 14H16.5C15.6716 14 15 14.6716 15 15.5V21.5C15 22.3284 15.6716 23 16.5 23H17.5C18.3284 23 19 22.3284 19 21.5V15.5C19 14.6716 18.3284 14 17.5 14Z" fill="#454F5B"/>
</svg>
