<svg width="25" height="25" viewBox="0 0 25 25" fill="none" xmlns="http://www.w3.org/2000/svg">
<path fill-rule="evenodd" clip-rule="evenodd" d="M5.5 2H19.5C21.433 2 23 3.567 23 5.5V12.5C23 14.433 21.433 16 19.5 16H5.5C3.567 16 2 14.433 2 12.5V5.5C2 3.567 3.567 2 5.5 2ZM23 15.5V15C23 15 22.2445 16.8304 19.5 17H5.5C2.69682 16.793 2 15 2 15V15.5C2 17.433 3.567 19 5.5 19H19.5C21.433 19 23 17.433 23 15.5ZM23 18.5V18C23 18 22.2445 19.8304 19.5 20H5.5C2.69682 19.793 2 18 2 18V18.5C2 20.433 3.567 22 5.5 22H19.5C21.433 22 23 20.433 23 18.5ZM14.5 6H13V5.5C13 5.22386 12.7761 5 12.5 5C12.2239 5 12 5.22386 12 5.5V6H11.5139C10.6855 6 10.0139 6.67157 10.0139 7.5V8.00076C10.0139 8.82918 10.6855 9.50076 11.5139 9.50076H13.5C13.7761 9.50076 14 9.72461 14 10.0008V10.5C14 10.7761 13.7761 11 13.5 11H11.0123C10.9917 10.7498 10.786 10.5497 10.5291 10.5419C10.2531 10.5335 10.0226 10.7504 10.0142 11.0264L10.0002 11.4848C9.99166 11.7668 10.2179 12 10.5 12H12V12.4912C12 12.7674 12.2239 12.9912 12.5 12.9912C12.7761 12.9912 13 12.7674 13 12.4912V12H13.5C14.3284 12 15 11.3284 15 10.5V10.0008C15 9.17233 14.3284 8.50076 13.5 8.50076H11.5139C11.2378 8.50076 11.0139 8.2769 11.0139 8.00076V7.5C11.0139 7.22386 11.2378 7 11.5139 7H14.0149C14.0691 7.21745 14.2658 7.37854 14.5 7.37854C14.7761 7.37854 15 7.15468 15 6.87854V6.5C15 6.22386 14.7761 6 14.5 6Z" fill="#454F5B"/>
</svg>
