<svg width="25" height="25" viewBox="0 0 25 25" fill="none" xmlns="http://www.w3.org/2000/svg">
<path fill-rule="evenodd" clip-rule="evenodd" d="M2 13H13V6.5C13 5.52875 13.5539 4.68686 14.363 4.27294C14.1189 4.10098 13.8212 4 13.5 4H3.5C2.67157 4 2 4.67157 2 5.5V13ZM23 15.5C23 15.1158 22.8555 14.7653 22.618 14.4999C22.8555 14.2345 23 13.884 23 13.4998V12H19.5C18.6716 12 18 11.3284 18 10.5V8.5C18 7.67157 18.6716 7 19.5 7H22.1718L22.1463 6.89623C22.0005 6.30313 21.5098 5.85763 20.9054 5.76979L15.7157 5.01559C15.6443 5.00521 15.5722 5 15.5 5C14.6716 5 14 5.67157 14 6.5V13.4998C14 13.6752 14.0301 13.8436 14.0854 14H3.5C2.67157 14 2 14.6716 2 15.5V16.5C2 17.3284 2.67157 18 3.5 18H4.03544C4.27806 16.3039 5.73676 15 7.5 15C9.26324 15 10.7219 16.3039 10.9646 18H15.0354C15.2781 16.3039 16.7368 15 18.5 15C20.2389 15 21.6817 16.2682 21.9538 17.9301C22.5604 17.7378 23 17.1702 23 16.5V15.5ZM22.9567 10.1937L22.4175 8H19.5C19.2239 8 19 8.22386 19 8.5V10.5C19 10.7761 19.2239 11 19.5 11H23V10.5517C23 10.4311 22.9854 10.3109 22.9567 10.1937ZM10 18.5C10 19.8807 8.88071 21 7.5 21C6.11929 21 5 19.8807 5 18.5C5 17.1193 6.11929 16 7.5 16C8.88071 16 10 17.1193 10 18.5ZM21 18.5C21 19.8807 19.8807 21 18.5 21C17.1193 21 16 19.8807 16 18.5C16 17.1193 17.1193 16 18.5 16C19.8807 16 21 17.1193 21 18.5Z" fill="#454F5B"/>
</svg>
