<svg xmlns="http://www.w3.org/2000/svg" width="35" height="18" fill="none" viewBox="0 0 35 18"><path fill="#26AA99" fill-rule="evenodd" d="M5.08 2.974C6.391 2.179 9.99 0 14.677 0H35v18H14.677c-.842 0-3.489-.211-4.235-.585-.83-.414-1.12-.543-1.252-.602a1 1 0 0 1-.105-.05 1 1 0 0 1-.11-.07c-.114-.077-.35-.235-.97-.622-.589-.373-2.078-1.696-2.668-3.857 0 0 3.762 2.28 4.67.643.668-1.928-1.334-3.214-3.335-3.214a3 3 0 0 0-.46.075c-1.178.244-3.937.817-6.212-2.647 0 0 4.67.643 6.004-.642C7.34 5.143 9.356 4.24 11.342 4.5c0 0-2.358-2.186-6.672-1.286.09-.047.228-.13.41-.24m23.314 1.173-1.618 6.117h-8.433l.201-.744h2.166c.205 0 .405-.059.579-.17.173-.11.313-.268.404-.456a1.15 1.15 0 0 0-.106-1.181 1.1 1.1 0 0 0-.387-.33 1.1 1.1 0 0 0-.49-.116h-1.576l.196-.742h4.402a1.1 1.1 0 0 0 .662-.23 1.137 1.137 0 0 0 .212-1.574 1.1 1.1 0 0 0-.386-.328 1.1 1.1 0 0 0-.488-.117h-3.806l.035-.129a.9.9 0 0 1 .272-.443.84.84 0 0 1 .47-.204h7.284c.328.017.509.306.407.647m.35 8.275c.368.43.221 1.18-.328 1.672-.55.493-1.293.543-1.66.112-.368-.43-.221-1.18.328-1.673.55-.492 1.293-.542 1.66-.111m-6.7 0c.368.431.221 1.18-.328 1.673-.55.493-1.293.543-1.66.112-.368-.431-.22-1.18.328-1.673.55-.493 1.293-.543 1.66-.112m8.653-5.753 1.248 2.363c.059.117.07.253.035.38l-.86 3.288a.57.57 0 0 1-.187.289.55.55 0 0 1-.317.123h-1.02c.134-.866-.353-1.547-1.17-1.638-.96-.111-2.044.622-2.418 1.638h-3.113c.133-.866-.353-1.547-1.168-1.643-.963-.111-2.046.623-2.42 1.638h-1.255a.29.29 0 0 1-.253-.123.3.3 0 0 1-.038-.284l.131-.494h-1.329a.14.14 0 0 1-.122-.067.15.15 0 0 1-.012-.143l.203-.772a.3.3 0 0 1 .093-.144.27.27 0 0 1 .157-.063h10.412l1.218-4.65h1.647a.6.6 0 0 1 .31.073.6.6 0 0 1 .228.23m-6.6-1.161a.4.4 0 0 1-.137.204.37.37 0 0 1-.228.079h-5.877a.18.18 0 0 1-.15-.077.2.2 0 0 1-.028-.17l.11-.396a.2.2 0 0 1 .067-.1.2.2 0 0 1 .112-.04h5.766a.37.37 0 0 1 .304.157.4.4 0 0 1 .06.343m-8.98 2.64-.11.396a.2.2 0 0 0 .03.167.19.19 0 0 0 .148.075h5.526c.1 0 .197-.04.268-.113a.393.393 0 0 0 0-.55.37.37 0 0 0-.268-.114h-5.416c-.04 0-.08.014-.111.039a.2.2 0 0 0-.066.1" clip-rule="evenodd"/></svg>